<?xml version="1.0" encoding="utf-8"?>
<!-- Generator: Adobe Illustrator 27.2.0, SVG Export Plug-In . SVG Version: 6.00 Build 0)  -->
<svg version="1.1" id="Capa_2" xmlns="http://www.w3.org/2000/svg" xmlns:xlink="http://www.w3.org/1999/xlink" x="0px" y="0px"
	 viewBox="0 0 195.5 170.3" style="enable-background:new 0 0 195.5 170.3;" xml:space="preserve">
<style type="text/css">
	.st0{fill:#366396;stroke:#366194;stroke-miterlimit:10;}
	.st1{fill:#366295;stroke:#366194;stroke-miterlimit:10;}
</style>
<g>
	<path class="st0" d="M9.6,123c-0.2,0.8-0.3,1.7-0.4,2.6c-0.3,4.1,2.8,7.4,6.8,7.4c5,0,12.5,0,16,0c1.3,0,2.5-0.4,3.6-1.1l28-18.5
		h55.6c0,0,6.8,4.8,0,9.8H86.2c0,0-9.3,7.5-0.5,15.9h48.1l31.9-20.4h5.2c1.6,0,3.1,1,3.5,2.6c0.4,1.6-0.1,3.8-4,5.8l-32.5,21H19
		c-3.2,0-6.4,1.5-8.2,4.2c-1.4,2.1-2.1,4.8,0.2,7.7c1.8,2.2,4.6,3.4,7.5,3.4h111.2c7.8,0,15.4-2.2,22-6.4l25.5-16.3
		c4.7-3,8.4-7.3,10.3-12.5c2.1-5.6,2.7-12.7-3.4-18.6c0,0-14.1-13-32.5,0.6l-15.5,9.5c0,0,1.9-21.4-19.5-21.4H66.9
		c-5.1,0-10.1,1.5-14.3,4.4l-22.1,15.2l-15,0.2C12.6,118.2,10.2,120.2,9.6,123z"/>
	<path class="st1" d="M94.3,4.4c-24.9,0-45,19.7-45,43.9s20.2,43.9,45,43.9c24.9,0,45-19.7,45-43.9S119.2,4.4,94.3,4.4z M109.1,65.3
		c0,0-1.8,5.2-9.7,5v3.4c0,2-0.8,3.9-2.4,5c-1.2,0.9-2.9,1.4-4.8,0c-1.7-1.2-2.7-3.2-2.8-5.2l-0.2-4.1c0,0-14.2,0.9-12.9-7
		c0,0,1.3-8.8,13.5-2.6c1.5,0.8,3.2,1.3,4.9,1.4c2.1,0.2,4.7-0.1,6.4-2.1c0,0,3.5-5.5-10.8-6.7c0,0-20.1-3.6-11.1-21
		c0,0,2.3-5.3,10.1-5.2v-3.3c0-1.6,0.9-3.1,2.4-3.8c1.2-0.6,2.8-1,4.5-0.5c1.9,0.6,3.1,2.5,3.1,4.5v2.9c0,0,13.9,0.4,8.9,9.2
		c0,0-1.8,4.5-9.5,1.2c0,0-5.5-2.2-9.3,0.3c-1.6,1.1-1.4,3.6,0.3,4.5c1.9,1,5.4,2.2,11.6,3C101,44.1,118.5,50.6,109.1,65.3z"/>
</g>
</svg>
