<?xml version="1.0" encoding="utf-8"?>
<!-- Generator: Adobe Illustrator 27.2.0, SVG Export Plug-In . SVG Version: 6.00 Build 0)  -->
<svg version="1.1" id="Capa_3" xmlns="http://www.w3.org/2000/svg" xmlns:xlink="http://www.w3.org/1999/xlink" x="0px" y="0px"
	 viewBox="0 0 213.9 152.6" style="enable-background:new 0 0 213.9 152.6;" xml:space="preserve">
<style type="text/css">
	.st0{fill:#366194;stroke:#366194;stroke-miterlimit:10;}
</style>
<g>
	<path class="st0" d="M32.6,9.1c0,0-23.5-1.7-23.4,20.1l-0.1,77.9c0,4,0.9,8,2.8,11.5c2.7,5,8,10.4,18.3,10.4h82.6
		c0,0,1-15,5.4-15.4L28.5,114c-2.3,0-4.3-1.9-4.3-4.2l-0.5-81.6c0-2.2,1.8-4.1,4.1-4.1l142-0.5c2.2,0,4.1,1.8,4.1,4.1v29.5
		c0,0,12-11.9,15.6-8.5V26.7c0,0-0.4-17.8-20.4-17.9L32.6,9.1z"/>
	<path class="st0" d="M59.1,29.6c-0.2,0-0.4,0-0.5,0c-2.9,0.4-5,3.1-5,6v4.9c0,0-15.1,3.6-15.1,12.6v3.3c0,5.8,3.1,11.2,8.2,13.9
		c2.7,1.4,6.2,2.8,10.9,3.8c0,0,19.6,4.5,7.1,10.1c0,0-4.8,3.9-15.7-1.1c-2.4-1.1-5.2-1.2-7.6-0.2c-2.3,1-4.2,2.8-2.5,6.4
		c1.3,2.8,4,4.8,7,5.7c2.2,0.6,5,1.1,7.7,0.9v4.6c0,2.9,1.5,5.6,4,6.9c1.6,0.9,3.6,1.1,5.6-0.5c1.6-1.3,2.5-3.4,2.5-5.5l0-5.4
		c0,0,20.4-1.6,12.4-22c-1.2-3.2-2.8-5.2-5.8-6.8c-5-2.7-16-4.5-20.1-7.9c-1.7-1.4-1.6-4.2,0.2-5.5c2.2-1.6,6.6-2.1,15.5-0.5
		c3.3,0.6,3.7,0.8,5.6,0.3c1.9-0.5,3.7-1.8,3.3-4.7c0,0,2.1-7.4-11.6-8.4l-0.2-5.5C64.6,32.1,62.1,29.6,59.1,29.6z"/>
	<path class="st0" d="M91.8,55.8c-2-2-3.2-4.9-0.1-8.4c2.3-2.5,5.5-3.8,8.9-3.8h39.7c3.6,0,7,1.9,8.7,5.1c1.1,2.1,1.4,4.6-0.6,7.1
		c-1.7,2.1-4.4,3.2-7.1,3.2H99.7C96.8,59,93.9,57.9,91.8,55.8z"/>
	<path class="st0" d="M90.7,85.8c-1-1.7-1.5-4.3,0-7.4c1.1-2.2,2.6-3.4,4.3-3.4h19c1.7,0,3.4,1.6,4.2,4.5c0.5,1.8,0.7,4-0.3,6.2
		c-0.8,1.9-2.1,2.8-3.4,2.8H94.5C93.1,88.5,91.7,87.6,90.7,85.8z"/>
	<path class="st0" d="M165.9,79.1l22.7,22.4l-38.3,38.3c-3.5,3.5-8,5.7-12.8,6.3l-13.4,1.8c-2.5,0.3-4.6-1.8-4.3-4.3l1.5-11.7
		c0.6-4.9,2.8-9.4,6.2-13L165.9,79.1z"/>
	<path class="st0" d="M174.7,71.5L196,93.7l11-12.7c2.1-2.4,1.9-6.1-0.4-8.2l-12-11.2c-2.8-2.6-7.1-2.5-9.8,0.1L174.7,71.5z"/>
</g>
</svg>
