<?xml version="1.0" encoding="utf-8"?>
<!-- Generator: Adobe Illustrator 27.2.0, SVG Export Plug-In . SVG Version: 6.00 Build 0)  -->
<svg version="1.1" id="Capa_2" xmlns="http://www.w3.org/2000/svg" xmlns:xlink="http://www.w3.org/1999/xlink" x="0px" y="0px"
	 viewBox="0 0 173.61 166" style="enable-background:new 0 0 173.61 166;" xml:space="preserve">
<style type="text/css">
	.st0{fill:#366093;stroke:#366093;stroke-miterlimit:10;}
</style>
<path class="st0" d="M36.13,32.09v54.97L8.48,66.29c-1.35-1.01-1.43-3-0.18-4.12l12.86-11.5V17.38H67.1l19.61-16l19.1,15.23
	l44.9,0.52v33.55l13.12,11.4c1.36,1.18,1.31,3.31-0.1,4.43l-25.93,20.55V32.61L36.13,32.09z"/>
<path class="st0" d="M104.77,52.09l-2.97,11.61c0,0-23.87-8.39-24.77,1.68c0,0-0.26,3.74,12.26,5.81c0,0,17.94,3.74,18.06,15.87
	c0,0,2.71,15.61-15.16,18.19l0.07,7.61H80.39l0.13-8.65c0,0-12.26-1.55-16.9-5.03l4.13-11.23c0,0,11.11,5.29,17.82,5.16l6.18-0.13
	c0,0,5.02-0.5,3.94-4.54c-0.56-2.08-2.34-3.6-4.45-4.03c-4.36-0.88-13.55-3.18-19.11-7.69c0,0-9.68-7.74-4.13-19.35
	c0,0,4.13-8,11.61-8.52l0.13-8.26h13.29v8C93.03,48.61,103.87,49.77,104.77,52.09z"/>
<polygon class="st0" points="6.32,78.8 6.32,162.16 167.35,162.16 167.35,78.8 86.84,135.45 "/>
</svg>
