<?xml version="1.0" encoding="utf-8"?>
<!-- Generator: Adobe Illustrator 27.2.0, SVG Export Plug-In . SVG Version: 6.00 Build 0)  -->
<svg version="1.1" id="Capa_3" xmlns="http://www.w3.org/2000/svg" xmlns:xlink="http://www.w3.org/1999/xlink" x="0px" y="0px"
	 viewBox="0 0 120.4 161.2" style="enable-background:new 0 0 120.4 161.2;" xml:space="preserve">
<style type="text/css">
	.st0{fill:#365F92;stroke:#365F92;stroke-miterlimit:10;}
	.st1{fill:#366093;stroke:#365F92;stroke-miterlimit:10;}
</style>
<g>
	<path class="st0" d="M116.6,39.5l-34-35.2c-2.3-2.4-5.5-3.8-8.9-3.8H18.6c0,0-17.8,0.9-18.1,17.8V143c0,0,0.3,17.5,21.6,17.2
		l72,0.5c4.8,0,9.5-0.9,13.9-2.9c5.8-2.7,11.9-7.7,11.9-16.9V47.1C119.9,44.2,118.7,41.5,116.6,39.5z M105.4,139.2
		c0,7.7-6.8,6.5-6.8,6.5h-77c-7.7,0-6.5-5.3-6.5-5.3V20.9c0-5.9,4.7-5,4.7-5h50.4v25.5c0,10.7,11.3,8.9,11.3,8.9l24,0.6V139.2z"/>
	<path class="st1" d="M66.6,105.7l11-10.7c0,0,3.9-3.6,7.7-0.6l3.3,2.7c0,0,4.4,4.1,0,8.6l-23.1,22.5c0,0-5,6.2-9.8,0l-21.9-21.3
		c0,0-6.2-4.7-2.4-9.8l3.3-3.6c0,0,3.9-2.7,7.7,1.2l10.9,11.5l0-35c0,0-0.7-5.6,3.9-5.6h5.3c0,0,4.7-0.8,4.4,5.6L66.6,105.7z"/>
</g>
</svg>
