<?xml version="1.0" encoding="utf-8"?>
<!-- Generator: Adobe Illustrator 27.2.0, SVG Export Plug-In . SVG Version: 6.00 Build 0)  -->
<svg version="1.1" id="Capa_2" xmlns="http://www.w3.org/2000/svg" xmlns:xlink="http://www.w3.org/1999/xlink" x="0px" y="0px"
	 viewBox="0 0 146.84 170.32" style="enable-background:new 0 0 146.84 170.32;" xml:space="preserve">
<style type="text/css">
	.st0{fill:#366093;stroke:#366093;stroke-miterlimit:10;}
</style>
<g>
	<path class="st0" d="M32.65,69.48c0,0,10.65,44.32,50.71,32.9c0,0,24.97-7.55,28.45-32.9h-15.1c0,0-4.26,24.19-30.19,19.35
		c0,0-16.84-2.71-19.16-19.35H32.65z"/>
	<path class="st0" d="M141.61,149.42c0,0-9.29-36-39.68-35.61H46.41c-7.5,0-14.87,1.95-21.35,5.72
		c-9.48,5.51-21.04,15.19-21.83,29.89v9.48c0,0,0.19,5.23,11.81,5.23h116.32C131.35,164.13,144.13,164.52,141.61,149.42z
		 M17.94,149.42c3.1-17.61,23.23-20.32,23.23-20.32h64.65c12.77,0,21.87,20.32,21.87,20.32H17.94z"/>
	<path class="st0" d="M53.35,11.61c0,0-21.87,12.39-20.71,32.52c0,0-11.5,5.79-5.06,11.94c2.2,2.1,5.21,3.16,8.26,3.16h72.72
		c3.11,0,6.18-1.04,8.48-3.14c2.91-2.67,4.27-6.87-5.24-11.96c0,0-0.58-21.68-20.52-32.52l-9.1,17.61l-0.81-17.71
		c-0.12-2.62-1.66-4.98-4.02-6.12c-2.47-1.19-5.99-2.01-10.15-0.46C63.97,6.15,61.9,9.35,62,12.81l0.46,17L53.35,11.61z"/>
</g>
</svg>
