<?xml version="1.0" encoding="utf-8"?>
<!-- Generator: Adobe Illustrator 27.2.0, SVG Export Plug-In . SVG Version: 6.00 Build 0)  -->
<svg version="1.1" id="Capa_3" xmlns="http://www.w3.org/2000/svg" xmlns:xlink="http://www.w3.org/1999/xlink" x="0px" y="0px"
	 viewBox="0 0 215.23 132" style="enable-background:new 0 0 215.23 132;" xml:space="preserve">
<style type="text/css">
	.st0{fill:#366093;stroke:#366093;stroke-miterlimit:10;}
</style>
<g>
	<path class="st0" d="M162.32,45.68l-18.44-11.7c-2.7-1.72-5.84-2.63-9.04-2.65l-0.14,0L112,31.1l-0.13-10.19l20.68,0.11
		c2.38,0.01,4.73-0.77,6.51-2.35c4.39-3.87,2.59-7.5,0.26-9.88c-1.79-1.84-4.26-2.85-6.83-2.85c-11.19,0-49.22,0-58.64,0
		c-1.59,0-3.15,0.56-4.34,1.62c-3.41,3-3.2,6.09-1.97,8.55c1.55,3.11,4.89,4.92,8.36,4.85l21.77-0.44v10.32l-45.03,0.13
		C36.13,31.1,35.23,48.13,35.23,48.13v11.23h-12V34.8c0-3.17-2.23-6.02-5.36-6.49c-1.68-0.25-3.22,0.21-4.47,0.87
		c-1.98,1.05-3.21,3.12-3.21,8.43v56.54c0,2.53,0.85,5.03,2.56,6.91c3.01,3.31,5.8,2.15,7.81,0.22c2.08-1.99,3.15-4.81,3.15-7.69
		V73.74h10.16l0.19,14.52c-0.09,9.23,8.23,13.94,12.86,15.85c1.72,0.71,3.56,1.05,5.41,1.05h11.02l9.68,12.9
		c1.5,2.53,4.01,4.29,6.48,5.5c3.34,1.63,7.04,2.37,10.76,2.37h58.38c19.61-0.13,20-18.84,20-18.84V65.34v-4.95
		C168.65,49.94,162.32,45.68,162.32,45.68z M154.71,105.94c0.26,4.77-5.42,4.77-5.42,4.77h-63.1l-5.76-6.78
		c-1.84-2.16-3.48-4.48-5.11-6.8c-4.33-6.15-10.81-6.15-10.81-6.15l-11.23,0c-4.65,0.13-4.39-4-4.39-4v-35.1
		c0.03-1.1,0.32-2.03,0.74-2.82c1.13-2.14,3.45-3.38,5.87-3.38h80.23l18.98,12.9L154.71,105.94z"/>
	<circle class="st0" cx="68.97" cy="65.94" r="9.61"/>
	<circle class="st0" cx="99.03" cy="65.94" r="9.61"/>
	<circle class="st0" cx="129.34" cy="65.94" r="9.61"/>
	<path class="st0" d="M184.65,47.96c4.19-1.65,10.79-3.23,17.68-0.87c3.59,1.23,5.93,4.69,5.93,8.48v59.82c0,4.23-2.62,8-6.58,9.49
		c-3.95,1.49-9.47,2.19-15.96-0.7c-3.41-1.52-5.59-4.95-5.59-8.69V54.67C180.13,51.73,181.9,49.04,184.65,47.96z"/>
</g>
</svg>
