<?xml version="1.0" encoding="utf-8"?>
<!-- Generator: Adobe Illustrator 16.0.3, SVG Export Plug-In . SVG Version: 6.00 Build 0)  -->
<!DOCTYPE svg PUBLIC "-//W3C//DTD SVG 1.1//EN" "http://www.w3.org/Graphics/SVG/1.1/DTD/svg11.dtd">
<svg version="1.1" id="Capa_2" xmlns="http://www.w3.org/2000/svg" xmlns:xlink="http://www.w3.org/1999/xlink" x="0px" y="0px"
	 width="121px" height="161.468px" viewBox="0 0 121 161.468" enable-background="new 0 0 121 161.468" xml:space="preserve">
<g>
	<polygon fill="#1C5FA8" stroke="#1C5FA8" stroke-miterlimit="10" points="80.375,1.218 80.375,41.051 119.708,41.051 	"/>
	<path fill="#1C5FA8" stroke="#1C5FA8" stroke-miterlimit="10" d="M80.125,51.218c-7.875-0.25-10-8.5-10-8.5v-41.5H20.208
		C3.542,1.884,0.5,18.051,0.5,18.051v124.667c0.125,14.5,16.75,18.25,16.75,18.25l84.75,0c15.75,0.125,18.5-18,18.5-18v-91.75
		H80.125z M103.208,131.885c-0.5,8-8.833,8.833-8.833,8.833H25.708c-7.833-0.667-7.833-6.833-7.833-6.833V77.956
		c0.333-4.429,6.5-7.071,6.5-7.071h63.667c14.667-1.333,15.167,8.167,15.167,8.167V131.885z"/>
	<rect x="28.208" y="91.385" fill="#1C5FA8" stroke="#1C5FA8" stroke-miterlimit="10" width="15" height="14.5"/>
	<rect x="53.875" y="91.385" fill="#1C5FA8" stroke="#1C5FA8" stroke-miterlimit="10" width="15" height="14.5"/>
	<rect x="77.875" y="91.385" fill="#1C5FA8" stroke="#1C5FA8" stroke-miterlimit="10" width="15" height="14.5"/>
	<rect x="28.167" y="116.552" fill="#1C5FA8" stroke="#1C5FA8" stroke-miterlimit="10" width="15" height="14.5"/>
	<rect x="53.833" y="116.552" fill="#1C5FA8" stroke="#1C5FA8" stroke-miterlimit="10" width="15" height="14.5"/>
	<rect x="77.833" y="116.552" fill="#1C5FA8" stroke="#1C5FA8" stroke-miterlimit="10" width="15" height="14.5"/>
</g>
</svg>
