<?xml version="1.0" encoding="utf-8"?>
<!-- Generator: Adobe Illustrator 27.2.0, SVG Export Plug-In . SVG Version: 6.00 Build 0)  -->
<svg version="1.1" id="Capa_2" xmlns="http://www.w3.org/2000/svg" xmlns:xlink="http://www.w3.org/1999/xlink" x="0px" y="0px"
	 viewBox="0 0 184.26 169.96" style="enable-background:new 0 0 184.26 169.96;" xml:space="preserve">
<style type="text/css">
	.st0{fill:none;stroke:#000000;stroke-miterlimit:10;}
	.st1{fill:#366093;stroke:#366093;stroke-miterlimit:10;}
</style>
<path class="st0" d="M14.39,86.93"/>
<path class="st0" d="M3.48,83.42"/>
<path class="st1" d="M181.41,81.62c-0.31-2.08-1.41-3.97-3.02-5.32c-13.01-10.88-83.1-69.5-83.1-69.5s-3.57-3.71-7.94,0L5.06,77.29
	c-2.09,1.79-3.12,4.56-2.59,7.27c0.49,2.51,1.82,5.09,5.18,5.27c1.36,0.07,2.7-0.35,3.85-1.08l11.07-6.92l-0.26,60.26
	c0,0,2.95,22.26,23.06,22.06l88.81,0c0,0,27.29,0,26.9-24l0-58.45l8.27,5.89c1.53,1.09,3.38,1.7,5.25,1.63
	C177.9,89.09,182.33,87.81,181.41,81.62z M147.61,140.54c0,4.91-3.64,7.38-6.3,8.53c-1.39,0.6-2.89,0.89-4.4,0.89h-14.73v-47.48
	c-0.39-11.1-11.35-12.26-11.35-12.26l-37.03-0.13c-11.1,0-11.23,10.84-11.23,10.84l0.26,49.03H44.13c-6.71-0.13-7.74-8-7.74-8V68.41
	l55.55-46.32l55.68,47.1V140.54z"/>
</svg>
