<?xml version="1.0" encoding="utf-8"?>
<!-- Generator: Adobe Illustrator 16.0.3, SVG Export Plug-In . SVG Version: 6.00 Build 0)  -->
<!DOCTYPE svg PUBLIC "-//W3C//DTD SVG 1.1//EN" "http://www.w3.org/Graphics/SVG/1.1/DTD/svg11.dtd">
<svg version="1.1" id="Capa_2" xmlns="http://www.w3.org/2000/svg" xmlns:xlink="http://www.w3.org/1999/xlink" x="0px" y="0px"
	 width="161.347px" height="160.333px" viewBox="0 0 161.347 160.333" enable-background="new 0 0 161.347 160.333"
	 xml:space="preserve">
<g>
	<path fill="#1C5FA8" stroke="#1C5FA8" stroke-miterlimit="10" d="M80.674,0.5C36.395,0.5,0.5,36.168,0.5,80.167
		c0,43.999,35.895,79.666,80.174,79.666c44.278,0,80.173-35.667,80.173-79.666C160.847,36.168,124.952,0.5,80.674,0.5z
		 M81.177,145.167c-36.453,0-66.003-29.176-66.003-65.167c0-35.99,29.551-65.167,66.003-65.167
		c36.452,0,66.003,29.176,66.003,65.167C147.18,115.991,117.629,145.167,81.177,145.167z"/>
	<path fill="#1C5FA8" stroke="#1C5FA8" stroke-miterlimit="10" d="M80.046,44.675c0,0-5.366-0.259-6.241,6.116v22.375H53.68
		c0,0-7.875,0.25-7.75,5.875l-0.001,4.125c0,0,0.001,3.875,5.876,4H73.93l-0.375,20.875c0,0-0.637,6.75,6.619,7.125h3.131
		c0,0,5.375,0.375,5.5-5v-23l19.25-0.25c0,0,8,0.5,8-4.875v-4.25c0,0,0.25-5.125-9.625-5.25l-18.625,0.5l0.5-22.5
		c0,0,0.75-5.182-4.503-5.896L80.046,44.675z"/>
</g>
</svg>
