<?xml version="1.0" encoding="utf-8"?>
<!-- Generator: Adobe Illustrator 27.2.0, SVG Export Plug-In . SVG Version: 6.00 Build 0)  -->
<svg version="1.1" xmlns="http://www.w3.org/2000/svg" xmlns:xlink="http://www.w3.org/1999/xlink" x="0px" y="0px"
	 viewBox="0 0 207.4 156.8" style="enable-background:new 0 0 207.4 156.8;" xml:space="preserve">
<style type="text/css">
	.st0{fill:#376398;stroke:#376398;stroke-miterlimit:10;}
	.st1{fill:#366295;stroke:#366194;stroke-miterlimit:10;}
</style>
<g id="Capa_4">
</g>
<g id="Capa_2">
	<g>
		<polygon class="st0" points="2.4,13.6 28.6,13.6 27.6,85.6 54.1,111.1 68.6,101.1 39.6,73.6 53.3,59.9 92.4,99.2 93.4,153.3 
			50.1,153.3 3.6,108.1 		"/>
		<polygon class="st0" points="178.4,13.6 178.4,84.8 152.4,110.8 138.7,101.5 167.2,73 153.2,58.7 113.5,99.2 113.5,153.3 
			157.7,153.3 203.5,108.1 203.5,13.6 		"/>
		<path class="st1" d="M103.7,3.5c-17.2,0-31.1,13.9-31.1,31.1s13.9,31.1,31.1,31.1c17.2,0,31.1-13.9,31.1-31.1S120.8,3.5,103.7,3.5
			z M113.9,46.5c0,0-1.3,3.6-6.7,3.6v2.4c0,1.4-0.6,2.7-1.7,3.5c-0.9,0.6-2,1-3.3,0c-1.2-0.8-1.8-2.2-1.9-3.7l-0.2-2.9
			c0,0-9.8,0.6-8.9-4.9c0,0,0.9-6.2,9.3-1.9c1.1,0.5,2.2,0.9,3.4,1c1.5,0.1,3.2-0.1,4.4-1.5c0,0,2.4-3.9-7.5-4.7
			c0,0-13.9-2.6-7.7-14.9c0,0,1.6-3.7,7-3.6v-2.3c0-1.1,0.6-2.2,1.6-2.7c0.8-0.4,1.9-0.7,3.1-0.3c1.3,0.4,2.2,1.7,2.2,3.2v2
			c0,0,9.6,0.3,6.1,6.5c0,0-1.2,3.2-6.6,0.8c0,0-3.8-1.5-6.4,0.2c-1.1,0.8-1,2.5,0.2,3.2c1.3,0.7,3.7,1.5,8,2.1
			C108.3,31.6,120.4,36.1,113.9,46.5z"/>
	</g>
</g>
</svg>
