<?xml version="1.0" encoding="utf-8"?>
<!-- Generator: Adobe Illustrator 27.2.0, SVG Export Plug-In . SVG Version: 6.00 Build 0)  -->
<svg version="1.1" id="Capa_1" xmlns="http://www.w3.org/2000/svg" xmlns:xlink="http://www.w3.org/1999/xlink" x="0px" y="0px"
	 viewBox="0 0 107.3 112.45" style="enable-background:new 0 0 107.3 112.45;" xml:space="preserve">
<style type="text/css">
	.st0{fill:#1DB2A8;}
	.st1{clip-path:url(#SVGID_00000161598913399728060060000015447652198102375096_);}
	.st2{fill:#130800;}
	.st3{fill:#F9C2A7;}
	.st4{fill:#EDEDED;}
	.st5{fill:#E1B099;}
	.st6{fill:#E74645;}
	.st7{fill:#432918;}
</style>
<g>
	
		<ellipse transform="matrix(0.1608 -0.987 0.987 0.1608 -10.8215 100.1443)" class="st0" cx="53.48" cy="56.44" rx="52.33" ry="52.33"/>
	<g>
		<defs>
			
				<ellipse id="SVGID_1_" transform="matrix(0.1608 -0.987 0.987 0.1608 -10.8215 100.1443)" cx="53.48" cy="56.44" rx="52.33" ry="52.33"/>
		</defs>
		<clipPath id="SVGID_00000070117468445832130190000002778063885499346572_">
			<use xlink:href="#SVGID_1_"  style="overflow:visible;"/>
		</clipPath>
		<g style="clip-path:url(#SVGID_00000070117468445832130190000002778063885499346572_);">
			<path class="st2" d="M29.53,52.03c-0.29,0.43-1.19,36.82,5.2,44.27h36.2c0,0,9.89-27.94,3.15-44.27H29.32"/>
			<g>
				<rect x="44.04" y="72.04" class="st3" width="20.04" height="13.5"/>
				<path class="st4" d="M48.9,81.8c3.02,1.2,6.33,1.92,9.58,1.95c1.86,0.01,3.76-0.22,5.6-0.54V72.04H44.04v6.98
					C45.45,80.26,47.24,81.15,48.9,81.8z"/>
				<g>
					<path class="st3" d="M75.75,46.63c0.07-0.5,0.91-1.31,1.28-1.58c0.82-0.61,1.65,0.02,1.89,0.81c0.21,0.71,0.23,1.51,0.29,2.24
						c0.13,1.79-0.15,3.55-0.95,5.17c-0.54,1.08-1.38,1.97-2.38,2.64c0,0-1.08,0.54-1.29-0.7C74.58,55.21,75.75,46.63,75.75,46.63z"
						/>
					<path class="st5" d="M75.58,47.71c0.05-0.36,0.65-0.93,0.92-1.13c0.59-0.44,1.18,0.01,1.36,0.58c0.15,0.51,0.17,1.08,0.21,1.6
						c0.09,1.28-0.11,2.54-0.68,3.7c-0.39,0.77-0.99,1.41-1.71,1.89c0,0-0.77,0.38-0.92-0.5C74.74,53.85,75.58,47.71,75.58,47.71z"
						/>
				</g>
				<g>
					<path class="st3" d="M31.86,46.63c-0.07-0.5-0.91-1.31-1.28-1.58c-0.82-0.61-1.65,0.02-1.89,0.81
						c-0.22,0.71-0.24,1.51-0.29,2.24c-0.12,1.79,0.15,3.55,0.95,5.17c0.54,1.08,1.38,1.97,2.38,2.64c0,0,1.08,0.54,1.29-0.7
						C33.03,55.21,31.86,46.63,31.86,46.63z"/>
					<path class="st5" d="M32.03,47.71c-0.05-0.36-0.65-0.93-0.92-1.13c-0.59-0.44-1.18,0.01-1.35,0.58
						c-0.15,0.51-0.17,1.08-0.21,1.6c-0.09,1.28,0.11,2.54,0.68,3.7c0.39,0.77,0.99,1.41,1.71,1.89c0,0,0.77,0.38,0.93-0.5
						C32.87,53.85,32.03,47.71,32.03,47.71z"/>
				</g>
				<path class="st3" d="M76.41,48.24c0,5.66-0.98,11.38-3.64,16.27c-2.33,4.28-5.83,7.71-9.59,10.45
					c-3.05,2.22-6.32,4.81-10.17,4.49c-4.02-0.33-7.15-3.76-10.09-6.43c-4.13-3.76-7.39-8.43-9.4-13.93
					c-1.24-3.39-1.81-7.21-1.81-10.86c0-18.29,10.01-29.79,22.35-29.79C66.4,18.45,76.41,29.95,76.41,48.24z"/>
				<path class="st3" d="M84.55,91.65l-21.76-6.53h-8.73h-8.73l-21.76,6.53c0,0-10.08,4.29-11.2,17.86h41.7h41.7
					C94.64,95.93,84.55,91.65,84.55,91.65z"/>
				<path class="st6" d="M84.55,91.65l-12.03-3.61l-18.46,18.44L35.55,88.05l-11.98,3.59c0,0-10.08,4.29-11.2,17.86h41.7h41.7
					C94.64,95.93,84.55,91.65,84.55,91.65z"/>
			</g>
			<path class="st7" d="M38.89,25.71c0,0,10.76,17.07,37.45,19.98c0,0,5.05-19.45-13.72-28.9C62.62,16.79,48.26,10.86,38.89,25.71z"
				/>
			<path class="st7" d="M41.65,29.17c0,0-6.95,4.5-9.97,17.05c0,0-3.23-23.65,13.49-26.6L41.65,29.17z"/>
			<path class="st7" d="M68.93,43.72c0,0,7.16,45.56-4.16,58.46c0,0,14.47-2.15,15.19-22.07c0,0,2.58-40.69-7.21-54.73L68.93,43.72z
				"/>
			<path class="st7" d="M38.3,102.18c0,0-16.66-1.98-12.08-53.21c0,0,1.15-28.46,17.81-29.11l-0.96,10.8c0,0-9.58,2.85-8.34,25.37
				C34.73,56.02,33.76,92.29,38.3,102.18z"/>
		</g>
	</g>
</g>
</svg>
